<svg width="35" height="13" viewBox="0 0 35 13" fill="none" xmlns="http://www.w3.org/2000/svg">
<path d="M0.32 12.16V1.06H3.68V2.62H2.12V10.6H3.68V12.16H0.32ZM5.05063 10V0.916H6.85063V10H5.05063ZM11.4198 10.144C10.7718 10.144 10.1798 9.996 9.64381 9.7C9.11581 9.404 8.69181 9 8.37181 8.488C8.05981 7.968 7.90381 7.38 7.90381 6.724C7.90381 6.06 8.05981 5.472 8.37181 4.96C8.69181 4.448 9.11581 4.044 9.64381 3.748C10.1798 3.452 10.7718 3.304 11.4198 3.304C12.0678 3.304 12.6558 3.452 13.1838 3.748C13.7118 4.044 14.1318 4.448 14.4438 4.96C14.7638 5.472 14.9238 6.06 14.9238 6.724C14.9238 7.38 14.7638 7.968 14.4438 8.488C14.1318 9 13.7118 9.404 13.1838 9.7C12.6558 9.996 12.0678 10.144 11.4198 10.144ZM11.4198 8.524C11.7478 8.524 12.0318 8.448 12.2718 8.296C12.5198 8.144 12.7118 7.932 12.8478 7.66C12.9918 7.388 13.0638 7.076 13.0638 6.724C13.0638 6.372 12.9918 6.064 12.8478 5.8C12.7118 5.528 12.5198 5.316 12.2718 5.164C12.0318 5.004 11.7478 4.924 11.4198 4.924C11.0918 4.924 10.8038 5.004 10.5558 5.164C10.3078 5.316 10.1118 5.528 9.96781 5.8C9.83181 6.064 9.76381 6.372 9.76381 6.724C9.76381 7.076 9.83181 7.388 9.96781 7.66C10.1118 7.932 10.3078 8.144 10.5558 8.296C10.8038 8.448 11.0918 8.524 11.4198 8.524ZM19.2002 12.64C18.6962 12.64 18.2282 12.556 17.7962 12.388C17.3642 12.22 16.9922 11.984 16.6802 11.68C16.3762 11.384 16.1562 11.032 16.0202 10.624L17.6882 10.036C17.7762 10.34 17.9562 10.58 18.2282 10.756C18.5002 10.932 18.8242 11.02 19.2002 11.02C19.4962 11.02 19.7522 10.964 19.9682 10.852C20.1842 10.748 20.3482 10.592 20.4602 10.384C20.5802 10.176 20.6402 9.932 20.6402 9.652V8.152L20.9882 8.584C20.7642 8.952 20.4762 9.228 20.1242 9.412C19.7722 9.588 19.3602 9.676 18.8882 9.676C18.2802 9.676 17.7362 9.54 17.2562 9.268C16.7762 8.988 16.4002 8.608 16.1282 8.128C15.8562 7.64 15.7202 7.088 15.7202 6.472C15.7202 5.856 15.8562 5.312 16.1282 4.84C16.4002 4.36 16.7722 3.984 17.2442 3.712C17.7162 3.44 18.2522 3.304 18.8522 3.304C19.3242 3.304 19.7362 3.4 20.0882 3.592C20.4402 3.776 20.7402 4.06 20.9882 4.444L20.7602 4.876V3.448H22.4402V9.652C22.4402 10.228 22.3002 10.74 22.0202 11.188C21.7402 11.644 21.3562 12 20.8682 12.256C20.3882 12.512 19.8322 12.64 19.2002 12.64ZM19.1402 8.044C19.4442 8.044 19.7082 7.98 19.9322 7.852C20.1562 7.724 20.3282 7.544 20.4482 7.312C20.5762 7.08 20.6402 6.808 20.6402 6.496C20.6402 6.184 20.5762 5.912 20.4482 5.68C20.3202 5.44 20.1442 5.256 19.9202 5.128C19.6962 4.992 19.4362 4.924 19.1402 4.924C18.8362 4.924 18.5642 4.992 18.3242 5.128C18.0922 5.256 17.9082 5.44 17.7722 5.68C17.6442 5.912 17.5802 6.184 17.5802 6.496C17.5802 6.8 17.6442 7.068 17.7722 7.3C17.9082 7.532 18.0922 7.716 18.3242 7.852C18.5642 7.98 18.8362 8.044 19.1402 8.044ZM27.0175 10.144C26.3695 10.144 25.7775 9.996 25.2415 9.7C24.7135 9.404 24.2895 9 23.9695 8.488C23.6575 7.968 23.5015 7.38 23.5015 6.724C23.5015 6.06 23.6575 5.472 23.9695 4.96C24.2895 4.448 24.7135 4.044 25.2415 3.748C25.7775 3.452 26.3695 3.304 27.0175 3.304C27.6655 3.304 28.2535 3.452 28.7815 3.748C29.3095 4.044 29.7295 4.448 30.0415 4.96C30.3615 5.472 30.5215 6.06 30.5215 6.724C30.5215 7.38 30.3615 7.968 30.0415 8.488C29.7295 9 29.3095 9.404 28.7815 9.7C28.2535 9.996 27.6655 10.144 27.0175 10.144ZM27.0175 8.524C27.3455 8.524 27.6295 8.448 27.8695 8.296C28.1175 8.144 28.3095 7.932 28.4455 7.66C28.5895 7.388 28.6615 7.076 28.6615 6.724C28.6615 6.372 28.5895 6.064 28.4455 5.8C28.3095 5.528 28.1175 5.316 27.8695 5.164C27.6295 5.004 27.3455 4.924 27.0175 4.924C26.6895 4.924 26.4015 5.004 26.1535 5.164C25.9055 5.316 25.7095 5.528 25.5655 5.8C25.4295 6.064 25.3615 6.372 25.3615 6.724C25.3615 7.076 25.4295 7.388 25.5655 7.66C25.7095 7.932 25.9055 8.144 26.1535 8.296C26.4015 8.448 26.6895 8.524 27.0175 8.524ZM31.6299 12.16V10.6H33.1899V2.62H31.6299V1.06H34.9899V12.16H31.6299Z" fill="black"/>
</svg>
